<svg width="30" height="25" viewBox="0 0 30 25" fill="none" xmlns="http://www.w3.org/2000/svg">
<path d="M27.5063 14.7128L29.9684 4.55659C30.1462 3.82329 29.5516 3.125 28.7831 3.125H6.98405L6.46843 0.812195C6.32627 0.174106 5.74937 0 5.20281 0H0.9375C0.419795 0 0 0.419795 0 0.9375V1.875C0 2.39484 0.419795 2.8125 0.9375 2.8125H4.07681L7.84434 16.5875C7.40938 17.2969 7.29492 18.1406 7.50977 18.9375C7.72461 19.7344 8.24219 20.4219 8.94141 20.875C9.64062 21.3281 10.4688 21.5117 11.2852 21.3906C12.1016 21.2695 12.8438 20.8516 13.3867 20.2188C13.9332 20.7391 14.6309 21.0828 15.3984 21.1875H15.5859C16.3203 21.1875 17.0312 20.9219 17.5938 20.4531C18.1562 19.9844 18.5391 19.3359 18.6719 18.5938C18.75 18.125 18.75 17.6562 18.6719 17.1875H11.4597C11.3125 16.8125 11.25 16.4375 11.25 16.0312C11.25 15.125 11.625 14.3125 12.2188 13.75H26.875C27.3948 13.75 27.8125 14.1698 27.8125 14.6875C27.8125 14.7031 27.5063 14.7128 27.5063 14.7128Z" fill="#111419"/>
</svg>